<svg width="113" height="89" viewBox="0 0 113 89" fill="none" xmlns="http://www.w3.org/2000/svg">
<path d="M112.531 42.3127C112.531 41.6095 112.109 41.1803 111.413 41.1011C110.811 41.0311 110.201 41.0159 109.596 40.9854C105.789 40.8058 102.091 40.1086 98.5273 38.7082C97.6067 38.346 97.2269 37.935 97.233 36.8482C97.2907 26.8414 97.2633 16.8316 97.2725 6.82485C97.2725 5.98157 97.1813 5.16264 96.917 4.36807C96.0784 1.83518 94.0852 0.516978 91.0439 0.516978C76.9885 0.513934 62.9392 0.516978 48.8869 0.516978C47.2553 0.516978 45.6207 0.516978 43.9891 0.516978C31.2646 0.526111 18.5431 0.513934 5.82154 0.556554C2.84093 0.565688 0.449755 3.05291 0.446717 6.02724C0.437602 24.7499 0.437602 43.4726 0.446717 62.1923C0.449755 65.2092 2.94423 67.6721 5.94003 67.6752C10.7254 67.6782 15.5108 67.6752 20.2962 67.6752C37.1954 67.6752 54.0977 67.6813 70.9969 67.6569C71.8598 67.6569 72.3581 67.8274 72.6832 68.7011C73.2757 70.3024 74.1568 71.7698 75.0622 73.2159C78.9239 79.3837 84.2927 84.0598 90.0169 88.3828C90.6702 88.876 91.2626 88.7298 91.8764 88.261C94.6018 86.1909 97.2451 84.0324 99.7153 81.6578C104.75 76.8143 108.56 71.1975 110.662 64.4786C112.935 57.227 112.534 49.7531 112.531 42.3127ZM2.90473 10.3867C3.005 8.94676 2.91385 7.49765 2.93815 6.05159C2.9655 4.44418 4.01069 3.26906 5.5967 3.0316C6.08283 2.95854 6.57504 2.90374 7.06422 2.90374C34.9379 2.89765 62.8086 2.89765 90.6823 2.9007C92.9854 2.9007 94.2007 3.57959 94.6109 5.3727C95.0454 7.26933 94.702 9.23293 94.7749 11.163C94.7871 11.4857 94.5623 11.5101 94.3222 11.5071C94.0579 11.504 93.7905 11.5071 93.5262 11.5071C78.6414 11.5071 63.7535 11.5071 48.8687 11.5071C33.9444 11.5071 19.0201 11.4979 4.0988 11.5284C3.19641 11.5314 2.83485 11.3883 2.90473 10.3867ZM3.1083 15.0628C3.05057 14.11 3.41213 13.8634 4.24768 13.9943C4.28414 14.0004 4.32364 13.9943 4.3601 13.9943C34.0872 13.9943 63.8143 14.0004 93.5444 13.9669C94.62 13.9669 94.8539 14.2774 94.8023 15.2759C94.7203 16.8681 94.7172 18.4725 94.8023 20.0677C94.8539 21.0328 94.5592 21.2398 93.6173 21.2398C78.6961 21.2063 63.7748 21.2155 48.8535 21.2155C34.0842 21.2155 19.3148 21.1972 4.54543 21.2489C3.30579 21.252 3.03234 20.8836 3.10526 19.742C3.20553 18.1863 3.19945 16.6185 3.1083 15.0628ZM70.1614 65.3919C49.0905 65.3919 28.0166 65.3919 6.94572 65.395C5.7395 65.395 4.60012 65.2336 3.74027 64.2777C3.19034 63.6658 2.92296 62.9534 2.92296 62.1101C2.93208 49.5948 2.93815 37.0795 2.91081 24.5612C2.90777 23.7758 3.16907 23.6388 3.88004 23.6418C33.8745 23.657 63.869 23.657 93.8634 23.654C94.3648 23.654 94.8084 23.5566 94.7992 24.3603C94.7628 28.4214 94.781 32.4856 94.781 36.7447C93.6599 36.0627 92.7879 35.4021 91.9857 34.6562C91.2444 33.9682 90.576 33.9652 89.7981 34.6593C84.3686 39.4967 78.0094 41.6217 70.7721 41.1041C69.818 41.0372 69.1405 41.3842 69.1435 42.3828C69.1678 49.2112 68.7212 56.0762 70.5837 62.7768C70.8146 63.611 71.0395 64.4482 71.2977 65.3889C70.8875 65.3919 70.5229 65.3919 70.1614 65.3919ZM106.74 67.9218C103.945 74.0805 99.5087 78.9088 94.4073 83.1983C93.4198 84.0294 92.3838 84.7996 91.3902 85.6246C91.056 85.9016 90.8251 85.9869 90.4271 85.6794C83.9949 80.7202 78.2342 75.1916 74.8495 67.5899C72.6224 62.5881 71.7261 57.3183 71.5864 51.8903C71.5225 49.3817 71.5894 46.8701 71.5469 44.3616C71.5347 43.6918 71.6593 43.4392 72.4037 43.4605C79.1518 43.6583 85.1221 41.5304 90.3481 37.2805C90.7643 36.9425 91.0044 36.9578 91.3933 37.2622C96.3518 41.1924 102.131 42.8181 108.323 43.2656C110.112 43.3935 110.112 43.3965 110.112 45.1836C110.112 46.59 110.112 47.9965 110.112 50.1032C110.286 55.8114 109.414 62.031 106.74 67.9218Z" fill="#1C1C1C"/>
</svg>
